# xmcd
#
# Track frame offsets:
# 150
# 10051
# 26294
# 35199
# 47362
# 62297
# 67235
# 83047
# 94609
# 109453
# 122976
# 126944
# 141909
# 156289
# 170592
# 181724
# 183332
# 188222
# 203170
# 220142
# 237537
#
# Disc length: 3289 seconds
#
#
# Revision: 0
# Processed by: cddbd v1.5.1PL2 Copyright (c) Steve Scherf et al.
# Submitted via: FreeRIP 2.944 
#
DISCID=2a0cd715
DTITLE=ResiNation - I Got Jerked: The Mixtape Album
DYEAR=2005
DGENRE=Hip-Hop
TTITLE0=Intro
TTITLE1=I Got Jerked!
TTITLE2=Big Noise
TTITLE3=3-32's
TTITLE4=Taste the Fame f. Icon the Mic King
TTITLE5=K-Nasty
TTITLE6=This Episode
TTITLE7=Poison Ivy
TTITLE8=Too Late
TTITLE9=Fade Away
TTITLE10=Dome ResiNator f. Seez Mics
TTITLE11=Needle to the Record f. Seez Mics
TTITLE12=DotDotDot... f. Seez Mics and ManChild
TTITLE13=Nobodies Anthem f. Seez Mics
TTITLE14=Looking Back
TTITLE15=Played By A Pro
TTITLE16=Freestyle
TTITLE17=Be Careful
TTITLE18=Reasons
TTITLE19=Train Ride
TTITLE20=Outro
EXTD=
EXTT0=
EXTT1=
EXTT2=
EXTT3=
EXTT4=
EXTT5=
EXTT6=
EXTT7=
EXTT8=
EXTT9=
EXTT10=
EXTT11=
EXTT12=
EXTT13=
EXTT14=
EXTT15=
EXTT16=
EXTT17=
EXTT18=
EXTT19=
EXTT20=
PLAYORDER=
